<svg width="114" height="114" viewBox="0 0 114 114" fill="none" xmlns="http://www.w3.org/2000/svg">
<g clip-path="url(#clip0_108_2033)">
<path d="M56.9999 71.25C63.7422 71.25 69.2142 65.8187 69.2142 59.1171C69.2142 52.4155 63.7422 46.9843 56.9999 46.9843C50.2576 46.9843 44.7856 52.4155 44.7856 59.1171C44.7856 65.8187 50.2576 71.25 56.9999 71.25Z" stroke="#FF6B3D" stroke-width="4" stroke-linecap="round" stroke-linejoin="round"/>
<path d="M100.648 21.8049C97.145 17.5078 92.08 14.7764 86.565 14.2103C81.0499 13.6441 75.5356 15.2896 71.2326 18.7853C69.6673 19.9566 68.295 21.3658 67.1657 22.9617C66.8832 19.7204 65.8517 16.5891 64.1525 13.8145C62.4534 11.0398 60.133 8.69779 57.3743 6.9729C54.6156 5.24801 51.494 4.18743 48.2555 3.87475C45.017 3.56207 41.7501 4.00585 38.7124 5.17109C35.6747 6.33633 32.9491 8.1912 30.7505 10.5895C28.5519 12.9878 26.9404 15.8639 26.0429 18.9913C25.1455 22.1186 24.9867 25.4117 25.579 28.6108C26.1714 31.81 27.4986 34.8279 29.4563 37.4266C27.544 36.9669 25.5712 36.8112 23.6104 36.9654C20.8749 37.1042 18.1934 37.7805 15.7192 38.9556C13.245 40.1307 11.0264 41.7816 9.19026 43.8142C7.35407 45.8467 5.9362 48.2209 5.01759 50.8014C4.09898 53.3818 3.69763 56.118 3.83644 58.8536C3.97526 61.5891 4.65153 64.2706 5.82664 66.7448C7.00175 69.219 8.65269 71.4376 10.6852 73.2737C12.7177 75.1099 15.092 76.5278 17.6724 77.4464C20.2529 78.365 22.989 78.7664 25.7246 78.6276C27.707 78.4703 29.6628 78.0715 31.5485 77.4401C30.5675 79.1202 29.7906 80.9114 29.2345 82.7757C28.5113 85.417 28.3198 88.1757 28.6713 90.8917C29.0227 93.6076 29.91 96.2267 31.2817 98.597C32.6534 100.967 34.4821 103.042 36.6618 104.7C38.8415 106.357 41.3288 107.566 43.9793 108.255C49.3479 109.68 55.062 108.93 59.8808 106.167C64.6995 103.404 68.2337 98.852 69.7159 93.4988C70.2102 91.5973 70.4266 89.6342 70.3583 87.6707C71.6525 89.1801 73.1363 90.4715 74.8097 91.5448C77.7107 93.3988 81.0215 94.5144 84.4529 94.7942C87.8843 95.074 91.3321 94.5095 94.4951 93.1499C97.6581 91.7904 100.44 89.6772 102.598 86.9948C104.757 84.3124 106.225 81.1425 106.876 77.7618C107.646 73.7102 107.187 69.5211 105.558 65.7324C103.929 61.9437 101.205 58.7285 97.7349 56.4996C96.0746 55.4855 94.2992 54.6734 92.4462 54.0804C94.2425 53.2924 95.9374 52.2909 97.4942 51.0975C99.6323 49.3867 101.411 47.2698 102.728 44.8688C104.044 42.4678 104.873 39.83 105.166 37.1074C105.459 34.3848 105.211 31.6311 104.436 29.0049C103.66 26.3786 102.373 23.9316 100.648 21.8049Z" stroke="#FF6B3D" stroke-width="4" stroke-linecap="round" stroke-linejoin="round"/>
</g>
<defs>
<clipPath id="clip0_108_2033">
<rect width="114" height="114" fill="white"/>
</clipPath>
</defs>
</svg>
