<svg width="126" height="126" viewBox="0 0 126 126" fill="none" xmlns="http://www.w3.org/2000/svg">
<g clip-path="url(#clip0_108_1942)">
<path d="M63 78.7497C55.548 78.7497 49.5 72.7467 49.5 65.3397C49.5 57.9327 55.548 51.9297 63 51.9297C70.452 51.9297 76.5 57.9327 76.5 65.3397C76.5 72.7467 70.452 78.7497 63 78.7497Z" stroke="white" stroke-opacity="0.8" stroke-width="4" stroke-linecap="round" stroke-linejoin="round"/>
<path d="M14.757 28.5215C18.6288 23.7721 24.227 20.7532 30.3226 20.1274C36.4182 19.5017 42.5129 21.3203 47.2689 25.184C48.999 26.4787 50.5157 28.0362 51.7639 29.8001C52.0762 26.2176 53.2162 22.7567 55.0942 19.69C56.9723 16.6233 59.5369 14.0347 62.586 12.1282C65.635 10.2218 69.0852 9.04956 72.6646 8.70397C76.244 8.35838 79.8548 8.84887 83.2123 10.1368C86.5698 11.4247 89.5823 13.4748 92.0123 16.1255C94.4423 18.7763 96.2235 21.9552 97.2154 25.4117C98.2073 28.8682 98.3828 32.5079 97.7281 36.0439C97.0734 39.5798 95.6064 42.9154 93.4427 45.7876C95.5563 45.2795 97.7368 45.1075 99.9039 45.2779C102.927 45.4313 105.891 46.1787 108.626 47.4775C111.36 48.7764 113.813 50.6011 115.842 52.8475C117.871 55.094 119.439 57.7182 120.454 60.5703C121.469 63.4223 121.913 66.4465 121.759 69.47C121.606 72.4936 120.859 75.4573 119.56 78.1919C118.261 80.9266 116.436 83.3786 114.19 85.4081C111.943 87.4376 109.319 89.0047 106.467 90.02C103.615 91.0353 100.591 91.4789 97.5672 91.3255C95.3761 91.1517 93.2145 90.7109 91.1303 90.0131C92.2146 91.8699 93.0732 93.8497 93.6879 95.9102C94.4872 98.8297 94.6988 101.879 94.3104 104.881C93.9219 107.882 92.9412 110.777 91.4252 113.397C89.9091 116.017 87.8879 118.309 85.4787 120.142C83.0696 121.974 80.3205 123.31 77.391 124.072C71.4572 125.647 65.1416 124.818 59.8157 121.764C54.4897 118.71 50.5835 113.679 48.9453 107.762C48.399 105.66 48.1598 103.491 48.2352 101.321C46.8048 102.989 45.1648 104.416 43.3152 105.602C40.1089 107.652 36.4496 108.885 32.657 109.194C28.8644 109.503 25.0537 108.879 21.5577 107.377C18.0618 105.874 14.9868 103.538 12.6014 100.573C10.216 97.6088 8.59269 94.1052 7.87317 90.3686C7.02248 85.8905 7.5299 81.2604 9.33028 77.0729C11.1307 72.8854 14.1418 69.3317 17.9769 66.8683C19.8119 65.7474 21.7743 64.8498 23.8223 64.1944C21.8369 63.3235 19.9636 62.2165 18.2429 60.8975C15.8797 59.0066 13.9139 56.6669 12.4586 54.0132C11.0033 51.3594 10.0873 48.444 9.76331 45.4348C9.43931 42.4256 9.71373 39.3821 10.5708 36.4793C11.4278 33.5766 12.8505 30.8721 14.757 28.5215Z" stroke="white" stroke-opacity="0.8" stroke-width="4" stroke-linecap="round" stroke-linejoin="round"/>
</g>
<defs>
<clipPath id="clip0_108_1942">
<rect width="126" height="126" fill="white" transform="matrix(-1 0 0 1 126 0)"/>
</clipPath>
</defs>
</svg>
