<svg width="183" height="184" viewBox="0 0 183 184" fill="none" xmlns="http://www.w3.org/2000/svg">
<g clip-path="url(#clip0_108_2027)">
<path d="M91.5002 115C102.323 115 111.107 106.234 111.107 95.4171C111.107 84.6005 102.323 75.8342 91.5002 75.8342C80.6771 75.8342 71.8931 84.6005 71.8931 95.4171C71.8931 106.234 80.6771 115 91.5002 115Z" stroke="#FF6B3D" stroke-width="4" stroke-linecap="round" stroke-linejoin="round"/>
<path d="M161.567 41.6504C155.944 34.7149 147.813 30.3063 138.96 29.3925C130.107 28.4788 121.255 31.1345 114.347 36.7767C111.835 38.6673 109.632 40.9418 107.819 43.5176C107.365 38.2861 105.71 33.232 102.982 28.7537C100.254 24.2753 96.5296 20.4952 92.1012 17.7111C87.6728 14.9271 82.6617 13.2153 77.4631 12.7106C72.2645 12.206 67.0203 12.9222 62.1439 14.803C57.2676 16.6837 52.8923 19.6775 49.3629 23.5484C45.8336 27.4194 43.2467 32.0616 41.8061 37.1092C40.3655 42.1569 40.1105 47.472 41.0614 52.6355C42.0122 57.7991 44.1429 62.6701 47.2854 66.8645C44.2156 66.1225 41.0488 65.8713 37.9013 66.1201C33.51 66.3442 29.2056 67.4357 25.2338 69.3323C21.262 71.229 17.7007 73.8937 14.7531 77.1742C11.8056 80.4547 9.52949 84.2869 8.05488 88.4519C6.58027 92.6168 5.936 97.033 6.15884 101.448C6.38167 105.864 7.46726 110.192 9.35362 114.185C11.24 118.179 13.8902 121.759 17.1529 124.723C20.4156 127.687 24.2269 129.975 28.3692 131.458C32.5116 132.941 36.9038 133.588 41.2951 133.364C44.4774 133.11 47.6169 132.467 50.644 131.448C49.0691 134.159 47.8221 137.05 46.9294 140.059C45.7684 144.323 45.4611 148.775 46.0253 153.159C46.5894 157.543 48.0137 161.77 50.2157 165.596C52.4176 169.421 55.3532 172.769 58.8522 175.445C62.3512 178.121 66.3439 180.072 70.5986 181.184C79.2167 183.484 88.3894 182.273 96.1247 177.814C103.86 173.355 109.533 166.007 111.913 157.367C112.706 154.298 113.053 151.129 112.944 147.96C115.021 150.397 117.403 152.481 120.09 154.213C124.746 157.206 130.061 159.006 135.569 159.458C141.078 159.909 146.612 158.998 151.69 156.804C156.767 154.61 161.233 151.199 164.698 146.869C168.162 142.54 170.52 137.423 171.565 131.967C172.801 125.428 172.064 118.666 169.449 112.551C166.834 106.436 162.461 101.246 156.891 97.649C154.225 96.0122 151.375 94.7014 148.401 93.7443C151.284 92.4724 154.005 90.8559 156.504 88.9298C159.936 86.1685 162.792 82.7518 164.905 78.8765C167.019 75.0011 168.349 70.7437 168.82 66.3493C169.29 61.955 168.892 57.5104 167.647 53.2715C166.402 49.0326 164.336 45.0831 161.567 41.6504Z" stroke="#FF6B3D" stroke-width="4" stroke-linecap="round" stroke-linejoin="round"/>
</g>
<defs>
<clipPath id="clip0_108_2027">
<rect width="183" height="184" fill="white"/>
</clipPath>
</defs>
</svg>
