<svg width="49" height="49" viewBox="0 0 49 49" fill="none" xmlns="http://www.w3.org/2000/svg">
<g clip-path="url(#clip0_99_115)">
<path fill-rule="evenodd" clip-rule="evenodd" d="M41.7801 4.81324C41.7614 4.72311 41.7246 4.63772 41.6718 4.56225C41.6191 4.48678 41.5517 4.42279 41.4735 4.37417C41.3953 4.32555 41.3081 4.29331 41.2171 4.2794C41.1261 4.26549 41.0332 4.27019 40.9441 4.29324C39.8861 4.51324 40.4841 3.15724 43.9761 31.1472C45.3521 42.1592 45.5721 42.5392 43.5961 42.9172C40.7041 43.4572 41.6021 41.7792 41.0441 37.4712C40.9677 36.546 40.7308 35.6412 40.3441 34.7972C39.6261 33.4612 36.5741 33.7412 35.4581 34.1992C39.9061 3.37724 41.1441 2.43924 39.9661 1.22124C39.3434 0.846667 38.6726 0.558685 37.9721 0.365238C37.075 0.310205 36.1753 0.310205 35.2781 0.365238C28.1487 -0.100468 20.9921 0.0661834 13.8921 0.863238C13.1721 0.983238 11.7161 0.943238 10.5601 1.14324C8.96412 1.42324 7.98612 1.97924 7.34812 5.13324C6.92812 7.42724 6.76812 10.4192 6.56812 11.7152C2.22012 38.0092 3.26012 30.8272 1.84412 45.4712C1.72412 46.3092 1.84412 47.4652 2.68212 47.2472C2.84212 47.4472 6.95012 47.9452 7.65012 47.2472C8.34812 46.5472 8.40812 44.6132 8.56612 43.9952C8.8707 42.3907 9.353 40.825 10.0041 39.3272H10.4821C11.0821 39.3272 11.7381 39.4472 12.0381 39.4672H20.9161C21.5561 39.4672 23.0701 39.2872 24.4081 39.2472C24.8481 39.2939 25.2868 39.3672 25.7241 39.4672C25.7241 39.6272 25.0641 45.4512 25.0241 46.1692C24.9501 46.6892 25.0641 47.2212 25.3441 47.6652C26.1841 48.4652 29.0761 47.9452 30.5721 47.9052C30.7572 47.9052 30.9348 47.8317 31.0657 47.7008C31.1966 47.5699 31.2701 47.3924 31.2701 47.2072C31.2701 47.0221 31.1966 46.8446 31.0657 46.7137C30.9348 46.5828 30.7572 46.5092 30.5721 46.5092H26.7801C26.7801 44.6732 27.5961 41.6012 27.7561 39.4252C27.8761 37.8892 27.2361 37.3112 25.7621 37.1112C24.2861 36.9112 27.0781 37.1112 12.1161 37.1112C8.56412 37.1512 7.88612 36.0152 6.57012 45.9912C6.09012 45.7112 4.57412 45.9912 4.35612 45.9912C2.64012 45.9912 2.86012 46.5872 3.01812 45.6712C4.87412 30.6292 3.81812 37.0112 8.56412 12.0752C8.82412 10.7972 9.04412 7.82524 9.56412 5.57124C10.0801 3.31724 10.3601 3.41724 11.3781 3.29724C12.3961 3.17724 13.5721 3.29724 14.1901 3.13724C21.1858 2.37478 28.2326 2.19416 35.2581 2.59724C38.7501 2.59724 38.2301 2.25924 37.9521 4.07524C37.7321 5.43124 33.2821 38.6272 33.0841 39.9852C32.6441 42.8972 31.9461 44.7732 31.8061 46.1492C31.7768 46.2726 31.7722 46.4005 31.7925 46.5256C31.8129 46.6508 31.8579 46.7706 31.9248 46.8783C31.9917 46.9859 32.0793 47.0793 32.1825 47.1529C32.2858 47.2265 32.4025 47.279 32.5261 47.3072C32.7111 47.3062 32.8881 47.232 33.0185 47.1008C33.1489 46.9696 33.2221 46.7922 33.2221 46.6072C33.2221 44.6132 33.8021 45.8492 35.2181 35.3972C35.7981 35.6972 36.1361 34.7372 38.4701 35.2172C38.7101 35.2172 38.9301 35.2172 38.9901 35.3972C40.1261 37.8112 38.8701 42.7972 40.2061 44.0152C42.0001 45.6312 46.2901 45.2112 47.0481 42.4592C48.1661 38.3692 42.6801 8.52324 41.7821 4.81324" fill="#F4511E"/>
<path fill-rule="evenodd" clip-rule="evenodd" d="M11.8563 7.32723L8.82427 24.6232C8.60427 26.2592 6.13027 30.1492 9.84227 31.1672C13.3996 31.4672 16.9636 31.5872 20.5343 31.5272C22.9143 31.5572 25.2803 31.9272 27.5583 32.6232C28.3468 32.6456 29.1199 32.4019 29.753 31.9313C30.3861 31.4608 30.8424 30.7907 31.0483 30.0292C31.4083 28.8932 31.4283 27.4552 31.7283 26.4592C33.2023 21.6512 33.2823 16.7432 34.1003 12.0352C34.6003 9.04323 35.6363 6.54923 32.7243 6.04923C28.4606 5.88113 24.1907 5.96127 19.9363 6.28923C10.5603 6.32923 12.2563 4.57323 11.8563 7.32723ZM31.8063 7.70723C32.6663 7.70723 32.2063 11.4572 32.1663 11.6952C32.1263 11.9352 29.4323 29.1512 28.3763 30.0292C27.3163 30.9092 27.4563 29.4312 20.6363 29.2312C10.4603 28.9112 9.38227 30.2692 9.94227 27.7552C11.0183 22.8872 9.64227 32.0252 13.0943 7.50723C14.5503 7.96523 27.6763 7.36723 31.7263 7.70723H31.8063Z" fill="#F4511E"/>
<path fill-rule="evenodd" clip-rule="evenodd" d="M17.1418 15.9292C17.6023 15.7222 18.1091 15.6354 18.6135 15.6772C18.6696 15.6815 18.7252 15.6643 18.7687 15.6293C18.8123 15.5943 18.8405 15.5442 18.8475 15.4892C18.8545 15.4343 18.8397 15.3788 18.8063 15.3344C18.7728 15.2899 18.7232 15.2598 18.6678 15.2503C18.0861 15.1633 17.4915 15.2237 16.9401 15.4259C16.3573 15.6233 15.8473 15.987 15.4753 16.4707C15.0335 17.0362 14.8012 17.7333 14.8166 18.4465C14.8482 18.8253 14.9799 19.1894 15.1988 19.5026C15.4177 19.8157 15.716 20.067 16.0642 20.2314C16.2193 20.3154 16.3823 20.3841 16.5529 20.4376C16.7278 20.4885 16.9059 20.5241 17.0875 20.5445C17.6648 20.6088 18.2471 20.4768 18.7377 20.1703C18.9952 20.0107 19.2095 19.7919 19.3621 19.5328C19.5147 19.2736 19.601 18.9818 19.6136 18.6825C19.6345 18.4667 19.6107 18.249 19.5437 18.0425C19.4932 17.8828 19.4024 17.7383 19.28 17.6224C19.2305 17.5661 19.173 17.5173 19.1093 17.4773H19.2489C19.2859 17.4732 19.3215 17.4612 19.3533 17.4421C19.3851 17.4231 19.4123 17.3974 19.433 17.3669C19.4536 17.3365 19.4673 17.3019 19.473 17.2657C19.4788 17.2295 19.4764 17.1925 19.4662 17.1573C19.4513 17.0943 19.4124 17.0394 19.3575 17.0039C19.3026 16.9683 19.236 16.9549 19.1713 16.9664C18.7609 17.0275 18.335 17.0275 17.9161 17.0886C17.7206 17.109 17.5294 17.1497 17.3427 17.2108C17.2968 17.2181 17.2537 17.2376 17.2181 17.2672C17.1826 17.2968 17.1559 17.3354 17.141 17.3788C17.141 17.4399 17.141 17.7905 17.4746 17.7905H18.0565C18.1987 17.8037 18.3353 17.8393 18.4661 17.8974C18.5856 17.9457 18.689 18.017 18.7764 18.1112C18.8277 18.1774 18.8613 18.2512 18.8773 18.3327C18.8928 18.4442 18.8928 18.556 18.8773 18.668C18.8591 18.8455 18.7974 19.0159 18.6974 19.1647C18.5973 19.3135 18.4621 19.436 18.3032 19.5218C17.9635 19.7152 17.5696 19.7956 17.1798 19.751C17.0538 19.733 16.9295 19.7049 16.8082 19.667C16.6856 19.6309 16.5662 19.5849 16.4513 19.5295C16.2183 19.4281 16.0164 19.2685 15.8656 19.0664C15.7148 18.8643 15.6203 18.6269 15.5917 18.3778C15.5648 17.834 15.7232 17.2969 16.0417 16.8518C16.3055 16.4425 16.6887 16.1202 17.1418 15.9292ZM22.0155 19.964C22.0535 19.9753 22.0939 19.9753 22.1319 19.964C22.7781 20.0083 23.4187 19.8201 23.9346 19.4343C24.4504 19.0486 24.8065 18.4916 24.9365 17.8668C25.3322 16.5165 24.8589 15.0212 23.2475 14.6782C22.7833 14.5851 22.3018 14.6246 21.8597 14.7921C21.4176 14.9597 21.0334 15.2482 20.7525 15.6237C20.4836 15.9771 20.2982 16.3851 20.2096 16.8179C20.121 17.2507 20.1316 17.6974 20.2404 18.1257C20.3529 18.5626 20.5624 18.9689 20.8533 19.3156C21.1528 19.6578 21.564 19.8854 22.0155 19.964ZM21.3716 16.1057C21.5714 15.8577 21.8378 15.6698 22.1406 15.5632C22.4433 15.4565 22.7703 15.4354 23.0846 15.5023C24.2002 15.7009 24.4718 16.7541 24.2468 17.6996C24.1796 18.2014 23.925 18.6607 23.5326 18.9879C23.1402 19.315 22.6381 19.4866 22.1241 19.4691C22.0619 19.4606 21.9987 19.4741 21.9457 19.5073C21.6697 19.4033 21.4318 19.2199 21.263 18.9811C20.9547 18.5578 20.7981 18.0456 20.8177 17.5251C20.8374 17.0046 21.0322 16.5053 21.3716 16.1057ZM26.9358 18.9422C26.9941 18.9382 27.0486 18.9121 27.0877 18.8694C27.1268 18.8266 27.1474 18.7705 27.1453 18.713C27.1453 18.2403 27.2461 17.7752 27.2772 17.3024C27.2772 17.1039 27.2772 16.9053 27.3159 16.7067C27.3547 16.5081 27.3159 16.3027 27.3159 16.1049C27.3159 15.6314 27.2772 15.1663 27.3159 14.6935C27.3203 14.6618 27.318 14.6296 27.3093 14.5987C27.3006 14.5679 27.2857 14.5391 27.2654 14.5141C27.2451 14.4892 27.2198 14.4685 27.1912 14.4534C27.1625 14.4383 27.1311 14.429 27.0987 14.4262C27.0659 14.4208 27.0323 14.4222 27.0001 14.4302C26.9679 14.4382 26.9377 14.4528 26.9114 14.4728C26.8852 14.4929 26.8635 14.5182 26.8476 14.547C26.8318 14.5757 26.8222 14.6074 26.8194 14.6401C26.7186 15.1136 26.6099 15.5787 26.5556 16.0667C26.5254 16.2715 26.5073 16.4778 26.5013 16.6846C26.4894 16.8908 26.4894 17.0967 26.5013 17.3024C26.5494 17.7841 26.6244 18.2619 26.7263 18.736C26.73 18.7895 26.7532 18.8399 26.7917 18.8778C26.8302 18.9157 26.8814 18.9386 26.9358 18.9422ZM25.8434 20.1168C25.7927 20.2439 25.7775 20.3821 25.7995 20.517C25.8215 20.6519 25.8798 20.7785 25.9684 20.8836C26.0569 20.9888 26.1725 21.0686 26.3031 21.1148C26.4337 21.161 26.5745 21.1719 26.7108 21.1463C27.6022 21.1005 27.7799 19.5218 26.7108 19.4837C26.5109 19.4576 26.3085 19.5093 26.1466 19.6276C25.9847 19.7459 25.876 19.9209 25.8434 20.1168Z" fill="#F4511E" fill-opacity="0.95"/>
</g>
<defs>
<clipPath id="clip0_99_115">
<rect width="48" height="48" fill="white" transform="translate(0.5 0.107178)"/>
</clipPath>
</defs>
</svg>
