<svg xmlns="http://www.w3.org/2000/svg" xmlns:xlink="http://www.w3.org/1999/xlink"
                    viewBox="0 0 600 600" width="600" height="600" preserveAspectRatio="xMidYMid meet"
                    style="width: 100%; height: 100%; transform: translate3d(0px, 0px, 0px); content-visibility: visible;">
                    <defs>
                        <clipPath id="__lottie_element_978">
                            <rect width="600" height="600" x="0" y="0"></rect>
                        </clipPath>
                        <clipPath id="__lottie_element_983">
                            <path d="M0,0 L600,0 L600,600 L0,600z"></path>
                        </clipPath>
                        <clipPath id="__lottie_element_989">
                            <path d="M0,0 L333,0 L333,183 L0,183z"></path>
                        </clipPath>
                        <clipPath id="__lottie_element_994">
                            <path d="M0,0 L472,0 L472,247 L0,247z"></path>
                        </clipPath>
                        <clipPath id="__lottie_element_999">
                            <path d="M0,0 L590,0 L590,322 L0,322z"></path>
                        </clipPath>
                        <clipPath id="__lottie_element_1003">
                            <path d="M0,0 L590,0 L590,322 L0,322z"></path>
                        </clipPath>
                        <clipPath id="__lottie_element_1008">
                            <path d="M0,0 L31,0 L31,17 L0,17z"></path>
                        </clipPath>
                        <clipPath id="__lottie_element_1019">
                            <path d="M0,0 L44,0 L44,23 L0,23z"></path>
                        </clipPath>
                        <clipPath id="__lottie_element_1030">
                            <path d="M0,0 L55,0 L55,30 L0,30z"></path>
                        </clipPath>
                        <clipPath id="__lottie_element_1042">
                            <path d="M0,0 L31,0 L31,17 L0,17z"></path>
                        </clipPath>
                        <clipPath id="__lottie_element_1048">
                            <path d="M0,0 L44,0 L44,23 L0,23z"></path>
                        </clipPath>
                        <clipPath id="__lottie_element_1054">
                            <path d="M0,0 L55,0 L55,30 L0,30z"></path>
                        </clipPath>
                    </defs>
                    <g clip-path="url(#__lottie_element_978)">
                        <g clip-path="url(#__lottie_element_983)" transform="matrix(1,0,0,1,0,0)" opacity="1"
                            style="display: block;">
                            <g clip-path="url(#__lottie_element_989)"
                                transform="matrix(1,0,0,1,133.5709991455078,257.57098388671875)" opacity="0"
                                style="display: block;">
                                <g clip-path="url(#__lottie_element_1008)"
                                    transform="matrix(10.714300155639648,0,0,10.714300155639648,0,0)" opacity="1"
                                    style="display: block;">
                                    <g transform="matrix(1.333299994468689,0,0,1.333299994468689,0,0)" opacity="1"
                                        style="display: block;">
                                        <g opacity="1" transform="matrix(1,0,0,1,0,0)">
                                            <g opacity="1" transform="matrix(0.75,0,0,0.75,0,0)">
                                                <path stroke-linecap="round" stroke-linejoin="miter" fill-opacity="0"
                                                    stroke-miterlimit="4" stroke="rgb(252,30,30)" stroke-opacity="1"
                                                    stroke-width="3"
                                                    d=" M2.1500000953674316,14.819999694824219 C2.1500000953674316,13.029999732971191 2.990000009536743,11.449999809265137 3.7699999809265137,9.880000114440918 C4.230000019073486,8.949999809265137 4.619999885559082,7.809999942779541 5.260000228881836,6.989999771118164 C6.099999904632568,5.909999847412109 6.860000133514404,4.96999979019165 7.829999923706055,4 C8.729999542236328,3.0999999046325684 9.8100004196167,2.869999885559082 10.869999885559082,2.299999952316284 C11.640000343322754,1.8899999856948853 12.539999961853027,2.130000114440918 13.369999885559082,1.940000057220459 C15.289999961853027,1.5099999904632568 17.6200008392334,1.8200000524520874 19.520000457763672,2.109999895095825 C22.6299991607666,2.5899999141693115 24.8799991607666,4.929999828338623 25.940000534057617,7.849999904632568 C26.3700008392334,9.039999961853027 26.75,10.529999732971191 27.360000610351562,11.640000343322754 C27.5,11.890000343322754 27.799999237060547,12.649999618530273 27.829999923706055,12.920000076293945 C27.90999984741211,13.579999923706055 28.780000686645508,14.140000343322754 28.780000686645508,14.819999694824219">
                                                </path>
                                            </g>
                                        </g>
                                    </g>
                                    <g transform="matrix(1,0,0,1,0,0)" opacity="1" style="display: block;">
                                        <path fill="rgb(0,0,0)" fill-opacity="0"
                                            d=" M31,0 C31,0 0,0 0,0 C0,0 0,17 0,17 C0,17 31,17 31,17 C31,17 31,0 31,0z">
                                        </path>
                                    </g>
                                </g>
                            </g>
                            <g clip-path="url(#__lottie_element_994)"
                                transform="matrix(1,0,0,1,58.57099914550781,193.2860107421875)" opacity="0"
                                style="display: block;">
                                <g clip-path="url(#__lottie_element_1019)"
                                    transform="matrix(10.714300155639648,0,0,10.714300155639648,0,0)" opacity="1"
                                    style="display: block;">
                                    <g transform="matrix(1.333299994468689,0,0,1.333299994468689,0,0)" opacity="1"
                                        style="display: block;">
                                        <g opacity="1" transform="matrix(1,0,0,1,0,0)">
                                            <g opacity="1" transform="matrix(0.75,0,0,0.75,0,0)">
                                                <path stroke-linecap="round" stroke-linejoin="miter" fill-opacity="0"
                                                    stroke-miterlimit="4" stroke="rgb(252,30,30)" stroke-opacity="1"
                                                    stroke-width="3"
                                                    d=" M2.119999885559082,21.09000015258789 C2.119999885559082,20.299999237060547 2.2100000381469727,19.520000457763672 2.5299999713897705,18.790000915527344 C2.9600000381469727,17.81999969482422 2.930000066757202,16.649999618530273 3.4700000286102295,15.710000038146973 C4.309999942779541,14.239999771118164 4.730000019073486,12.609999656677246 5.769999980926514,11.220000267028809 C6.340000152587891,10.449999809265137 6.71999979019165,9.609999656677246 7.329999923706055,8.859999656677246 C7.730000019073486,8.369999885559082 8.15999984741211,7.960000038146973 8.609999656677246,7.510000228881836 C9.5,6.619999885559082 10.6899995803833,5.679999828338623 11.789999961853027,5.070000171661377 C12.699999809265137,4.570000171661377 13.6899995803833,3.880000114440918 14.65999984741211,3.5399999618530273 C15.880000114440918,3.119999885559082 17.059999465942383,2.819999933242798 18.280000686645508,2.5 C20.920000076293945,1.809999942779541 24.219999313354492,1.7599999904632568 26.93000030517578,2.1700000762939453 C28.1200008392334,2.359999895095825 29.530000686645508,2.640000104904175 30.649999618530273,3.0399999618530273 C31.889999389648438,3.4800000190734863 33.27000045776367,3.859999895095825 34.29999923706055,4.730000019073486 C35.27000045776367,5.559999942779541 36.2599983215332,6.050000190734863 37.06999969482422,7.090000152587891 C37.7400016784668,7.949999809265137 38.22999954223633,8.75 38.720001220703125,9.729999542236328 C39.15999984741211,10.600000381469727 39.5,11.680000305175781 39.709999084472656,12.640000343322754 C39.81999969482422,13.130000114440918 40.11000061035156,13.600000381469727 40.11000061035156,14.130000114440918 C40.11000061035156,14.40999984741211 40.25,15.430000305175781 40.40999984741211,15.649999618530273 C40.93000030517578,16.360000610351562 40.54999923706055,17.549999237060547 40.97999954223633,18.31999969482422 C41.33000183105469,18.950000762939453 41.59000015258789,20.079999923706055 41.59000015258789,20.81999969482422">
                                                </path>
                                            </g>
                                        </g>
                                    </g>
                                    <g transform="matrix(1,0,0,1,0,0)" opacity="1" style="display: block;">
                                        <path fill="rgb(0,0,0)" fill-opacity="0"
                                            d=" M44,0 C44,0 0,0 0,0 C0,0 0,23 0,23 C0,23 44,23 44,23 C44,23 44,0 44,0z">
                                        </path>
                                    </g>
                                </g>
                            </g>
                            <g clip-path="url(#__lottie_element_999)" transform="matrix(1,0,0,1,5,129)" opacity="0"
                                style="display: block;">
                                <g clip-path="url(#__lottie_element_1030)"
                                    transform="matrix(10.714300155639648,0,0,10.714300155639648,0,0)" opacity="1"
                                    style="display: block;">
                                    <g transform="matrix(1.333299994468689,0,0,1.333299994468689,0,0)" opacity="1"
                                        style="display: block;">
                                        <g opacity="1" transform="matrix(1,0,0,1,0,0)">
                                            <g opacity="1" transform="matrix(0.75,0,0,0.75,0,0)">
                                                <path stroke-linecap="round" stroke-linejoin="miter" fill-opacity="0"
                                                    stroke-miterlimit="4" stroke="rgb(252,30,30)" stroke-opacity="1"
                                                    stroke-width="3"
                                                    d=" M2.119999885559082,27.760000228881836 C2.119999885559082,26.280000686645508 2.0199999809265137,24.639999389648438 2.390000104904175,23.200000762939453 C2.7100000381469727,21.969999313354492 2.5899999141693115,20.579999923706055 3.0999999046325684,19.3799991607666 C3.4200000762939453,18.610000610351562 3.4700000286102295,17.600000381469727 3.9800000190734863,16.920000076293945 C4.579999923706055,16.1200008392334 4.96999979019165,14.890000343322754 5.429999828338623,13.970000267028809 C7.099999904632568,10.630000114440918 10.239999771118164,7.78000020980835 13.470000267028809,6.159999847412109 C14.15999984741211,5.820000171661377 14.9399995803833,5.619999885559082 15.640000343322754,5.289999961853027 C16.270000457763672,4.989999771118164 17.260000228881836,4.570000171661377 17.969999313354492,4.510000228881836 C18.979999542236328,4.429999828338623 20.25,3.9100000858306885 21.209999084472656,3.5899999141693115 C22.219999313354492,3.25 23.329999923706055,3.069999933242798 24.360000610351562,2.880000114440918 C26.15999984741211,2.549999952316284 27.93000030517578,2.2100000381469727 29.770000457763672,2.2100000381469727 C30.559999465942383,2.2100000381469727 31.309999465942383,2.180000066757202 32.060001373291016,2.3499999046325684 C32.5,2.450000047683716 33.540000915527344,2.7899999618530273 33.86000061035156,3.049999952316284 C34.34000015258789,3.440000057220459 35.380001068115234,3.6500000953674316 36,3.9100000858306885 C36.66999816894531,4.179999828338623 37.349998474121094,4.46999979019165 38.0099983215332,4.78000020980835 C38.66999816894531,5.090000152587891 39.66999816894531,5.150000095367432 40.380001068115234,5.190000057220459 C40.9900016784668,5.21999979019165 41.72999954223633,5.889999866485596 42.27000045776367,6.159999847412109 C42.849998474121094,6.460000038146973 43.2599983215332,6.96999979019165 43.81999969482422,7.28000020980835 C44.72999954223633,7.789999961853027 45.459999084472656,8.869999885559082 46.2599983215332,9.510000228881836 C47.220001220703125,10.279999732971191 47.529998779296875,11.5600004196167 48.25,12.460000038146973 C49.029998779296875,13.4399995803833 49.900001525878906,14.449999809265137 49.970001220703125,15.729999542236328 C50,16.1299991607666 50.290000915527344,17 50.54999923706055,17.31999969482422 C50.959999084472656,17.84000015258789 50.88999938964844,18.450000762939453 51.060001373291016,19.040000915527344 C51.36000061035156,20.06999969482422 51.66999816894531,21.34000015258789 52.20000076293945,22.290000915527344 C52.900001525878906,23.540000915527344 52.810001373291016,25 52.810001373291016,26.40999984741211">
                                                </path>
                                            </g>
                                        </g>
                                    </g>
                                    <g transform="matrix(1,0,0,1,0,0)" opacity="1" style="display: block;">
                                        <path fill="rgb(0,0,0)" fill-opacity="0"
                                            d=" M55,0 C55,0 0,0 0,0 C0,0 0,30 0,30 C0,30 55,30 55,30 C55,30 55,0 55,0z">
                                        </path>
                                    </g>
                                </g>
                            </g>
                            <g clip-path="url(#__lottie_element_1003)" transform="matrix(1,0,0,1,5,109)" opacity="1"
                                style="display: block;">
                                <g clip-path="url(#__lottie_element_1042)"
                                    transform="matrix(10.714300155639648,0,0,10.714300155639648,128.5709991455078,128.5709991455078)"
                                    opacity="1" style="display: block;">
                                    <g transform="matrix(1.333299994468689,0,0,1.333299994468689,0,0)" opacity="1"
                                        style="display: block;">
                                        <g opacity="1" transform="matrix(1,0,0,1,0,0)">
                                            <g opacity="1" transform="matrix(0.75,0,0,0.75,0,0)">
                                                <path stroke-linecap="round" stroke-linejoin="miter" fill-opacity="0"
                                                    stroke-miterlimit="4" stroke="rgb(252,30,30)" stroke-opacity="1"
                                                    stroke-width="3"
                                                    d=" M2.1500000953674316,14.819999694824219 C2.1500000953674316,13.029999732971191 2.990000009536743,11.449999809265137 3.7699999809265137,9.880000114440918 C4.230000019073486,8.949999809265137 4.619999885559082,7.809999942779541 5.260000228881836,6.989999771118164 C6.099999904632568,5.909999847412109 6.860000133514404,4.96999979019165 7.829999923706055,4 C8.729999542236328,3.0999999046325684 9.8100004196167,2.869999885559082 10.869999885559082,2.299999952316284 C11.640000343322754,1.8899999856948853 12.539999961853027,2.130000114440918 13.369999885559082,1.940000057220459 C15.289999961853027,1.5099999904632568 17.6200008392334,1.8200000524520874 19.520000457763672,2.109999895095825 C22.6299991607666,2.5899999141693115 24.8799991607666,4.929999828338623 25.940000534057617,7.849999904632568 C26.3700008392334,9.039999961853027 26.75,10.529999732971191 27.360000610351562,11.640000343322754 C27.5,11.890000343322754 27.799999237060547,12.649999618530273 27.829999923706055,12.920000076293945 C27.90999984741211,13.579999923706055 28.780000686645508,14.140000343322754 28.780000686645508,14.819999694824219">
                                                </path>
                                            </g>
                                        </g>
                                    </g>
                                    <g transform="matrix(1,0,0,1,0,0)" opacity="1" style="display: block;">
                                        <path fill="rgb(0,0,0)" fill-opacity="0"
                                            d=" M31,0 C31,0 0,0 0,0 C0,0 0,17 0,17 C0,17 31,17 31,17 C31,17 31,0 31,0z">
                                        </path>
                                    </g>
                                </g>
                                <g clip-path="url(#__lottie_element_1048)"
                                    transform="matrix(10.714300155639648,0,0,10.714300155639648,53.57099914550781,64.28600311279297)"
                                    opacity="1" style="display: block;">
                                    <g transform="matrix(1.333299994468689,0,0,1.333299994468689,0,0)" opacity="1"
                                        style="display: block;">
                                        <g opacity="1" transform="matrix(1,0,0,1,0,0)">
                                            <g opacity="1" transform="matrix(0.75,0,0,0.75,0,0)">
                                                <path stroke-linecap="round" stroke-linejoin="miter" fill-opacity="0"
                                                    stroke-miterlimit="4" stroke="rgb(252,30,30)" stroke-opacity="1"
                                                    stroke-width="3"
                                                    d=" M2.119999885559082,21.09000015258789 C2.119999885559082,20.299999237060547 2.2100000381469727,19.520000457763672 2.5299999713897705,18.790000915527344 C2.9600000381469727,17.81999969482422 2.930000066757202,16.649999618530273 3.4700000286102295,15.710000038146973 C4.309999942779541,14.239999771118164 4.730000019073486,12.609999656677246 5.769999980926514,11.220000267028809 C6.340000152587891,10.449999809265137 6.71999979019165,9.609999656677246 7.329999923706055,8.859999656677246 C7.730000019073486,8.369999885559082 8.15999984741211,7.960000038146973 8.609999656677246,7.510000228881836 C9.5,6.619999885559082 10.6899995803833,5.679999828338623 11.789999961853027,5.070000171661377 C12.699999809265137,4.570000171661377 13.6899995803833,3.880000114440918 14.65999984741211,3.5399999618530273 C15.880000114440918,3.119999885559082 17.059999465942383,2.819999933242798 18.280000686645508,2.5 C20.920000076293945,1.809999942779541 24.219999313354492,1.7599999904632568 26.93000030517578,2.1700000762939453 C28.1200008392334,2.359999895095825 29.530000686645508,2.640000104904175 30.649999618530273,3.0399999618530273 C31.889999389648438,3.4800000190734863 33.27000045776367,3.859999895095825 34.29999923706055,4.730000019073486 C35.27000045776367,5.559999942779541 36.2599983215332,6.050000190734863 37.06999969482422,7.090000152587891 C37.7400016784668,7.949999809265137 38.22999954223633,8.75 38.720001220703125,9.729999542236328 C39.15999984741211,10.600000381469727 39.5,11.680000305175781 39.709999084472656,12.640000343322754 C39.81999969482422,13.130000114440918 40.11000061035156,13.600000381469727 40.11000061035156,14.130000114440918 C40.11000061035156,14.40999984741211 40.25,15.430000305175781 40.40999984741211,15.649999618530273 C40.93000030517578,16.360000610351562 40.54999923706055,17.549999237060547 40.97999954223633,18.31999969482422 C41.33000183105469,18.950000762939453 41.59000015258789,20.079999923706055 41.59000015258789,20.81999969482422">
                                                </path>
                                            </g>
                                        </g>
                                    </g>
                                    <g transform="matrix(1,0,0,1,0,0)" opacity="1" style="display: block;">
                                        <path fill="rgb(0,0,0)" fill-opacity="0"
                                            d=" M44,0 C44,0 0,0 0,0 C0,0 0,23 0,23 C0,23 44,23 44,23 C44,23 44,0 44,0z">
                                        </path>
                                    </g>
                                </g>
                                <g clip-path="url(#__lottie_element_1054)"
                                    transform="matrix(10.714300155639648,0,0,10.714300155639648,0,0)" opacity="1"
                                    style="display: block;">
                                    <g transform="matrix(1.333299994468689,0,0,1.333299994468689,0,0)" opacity="1"
                                        style="display: block;">
                                        <g opacity="1" transform="matrix(1,0,0,1,0,0)">
                                            <g opacity="1" transform="matrix(0.75,0,0,0.75,0,0)">
                                                <path stroke-linecap="round" stroke-linejoin="miter" fill-opacity="0"
                                                    stroke-miterlimit="4" stroke="rgb(252,30,30)" stroke-opacity="1"
                                                    stroke-width="3"
                                                    d=" M2.119999885559082,27.760000228881836 C2.119999885559082,26.280000686645508 2.0199999809265137,24.639999389648438 2.390000104904175,23.200000762939453 C2.7100000381469727,21.969999313354492 2.5899999141693115,20.579999923706055 3.0999999046325684,19.3799991607666 C3.4200000762939453,18.610000610351562 3.4700000286102295,17.600000381469727 3.9800000190734863,16.920000076293945 C4.579999923706055,16.1200008392334 4.96999979019165,14.890000343322754 5.429999828338623,13.970000267028809 C7.099999904632568,10.630000114440918 10.239999771118164,7.78000020980835 13.470000267028809,6.159999847412109 C14.15999984741211,5.820000171661377 14.9399995803833,5.619999885559082 15.640000343322754,5.289999961853027 C16.270000457763672,4.989999771118164 17.260000228881836,4.570000171661377 17.969999313354492,4.510000228881836 C18.979999542236328,4.429999828338623 20.25,3.9100000858306885 21.209999084472656,3.5899999141693115 C22.219999313354492,3.25 23.329999923706055,3.069999933242798 24.360000610351562,2.880000114440918 C26.15999984741211,2.549999952316284 27.93000030517578,2.2100000381469727 29.770000457763672,2.2100000381469727 C30.559999465942383,2.2100000381469727 31.309999465942383,2.180000066757202 32.060001373291016,2.3499999046325684 C32.5,2.450000047683716 33.540000915527344,2.7899999618530273 33.86000061035156,3.049999952316284 C34.34000015258789,3.440000057220459 35.380001068115234,3.6500000953674316 36,3.9100000858306885 C36.66999816894531,4.179999828338623 37.349998474121094,4.46999979019165 38.0099983215332,4.78000020980835 C38.66999816894531,5.090000152587891 39.66999816894531,5.150000095367432 40.380001068115234,5.190000057220459 C40.9900016784668,5.21999979019165 41.72999954223633,5.889999866485596 42.27000045776367,6.159999847412109 C42.849998474121094,6.460000038146973 43.2599983215332,6.96999979019165 43.81999969482422,7.28000020980835 C44.72999954223633,7.789999961853027 45.459999084472656,8.869999885559082 46.2599983215332,9.510000228881836 C47.220001220703125,10.279999732971191 47.529998779296875,11.5600004196167 48.25,12.460000038146973 C49.029998779296875,13.4399995803833 49.900001525878906,14.449999809265137 49.970001220703125,15.729999542236328 C50,16.1299991607666 50.290000915527344,17 50.54999923706055,17.31999969482422 C50.959999084472656,17.84000015258789 50.88999938964844,18.450000762939453 51.060001373291016,19.040000915527344 C51.36000061035156,20.06999969482422 51.66999816894531,21.34000015258789 52.20000076293945,22.290000915527344 C52.900001525878906,23.540000915527344 52.810001373291016,25 52.810001373291016,26.40999984741211">
                                                </path>
                                            </g>
                                        </g>
                                    </g>
                                    <g transform="matrix(1,0,0,1,0,0)" opacity="1" style="display: block;">
                                        <path fill="rgb(0,0,0)" fill-opacity="0"
                                            d=" M55,0 C55,0 0,0 0,0 C0,0 0,30 0,30 C0,30 55,30 55,30 C55,30 55,0 55,0z">
                                        </path>
                                    </g>
                                </g>
                            </g>
                        </g>
                    </g>
                </svg>