<svg width="27" height="28" viewBox="0 0 27 28" fill="none" xmlns="http://www.w3.org/2000/svg">
<path d="M14.5466 3.08806C13.9152 4.24899 14.6935 7.49673 15.8801 8.66594C16.7909 9.53966 17.4926 9.10478 17.7153 7.51519C17.9672 5.83925 16.9992 3.50064 15.8434 2.94073C14.963 2.50241 14.855 2.52918 14.5466 3.08806Z" fill="black"/>
<path d="M6.48703 4.09361C5.85566 5.25455 6.63393 8.50228 7.82052 9.6715C8.73134 10.5452 9.43303 10.1103 9.65568 8.52075C9.90763 6.8448 8.93967 4.50619 7.78384 3.94629C6.90342 3.50796 6.79539 3.53473 6.48703 4.09361Z" fill="black"/>
<path d="M2.84374 13.4845C3.04409 15.2856 5.78278 18.5301 8.25704 19.8706C9.01953 20.3065 10.3467 20.5946 11.526 20.6188C13.3784 20.6423 13.6435 20.5607 16.0727 19.1758C18.4038 17.8468 18.7667 17.5354 19.9082 15.9792C21.3632 13.9656 22.8134 9.69108 22.4179 8.52359C22.0718 7.50203 21.5177 8.02689 20.3685 10.5975C19.097 13.4119 18.4015 14.4701 16.9743 15.7016C15.6109 16.862 13.0923 17.8104 11.5249 17.7638C9.6626 17.7111 6.2138 15.568 4.36652 13.3128C3.42567 12.1776 2.71335 12.2355 2.84374 13.4845Z" fill="black"/>
</svg>
