<svg width="40" height="43" viewBox="0 0 40 43" fill="none" xmlns="http://www.w3.org/2000/svg">
<path d="M21.5404 4.81751C20.5555 6.62852 21.7696 11.6949 23.6206 13.5188C25.0415 14.8818 26.1361 14.2034 26.4834 11.7237C26.8765 9.10927 25.3665 5.46112 23.5634 4.58769C22.19 3.90392 22.0215 3.94568 21.5404 4.81751Z" fill="white"/>
<path d="M8.96817 6.38587C7.98326 8.19688 9.19733 13.2632 11.0484 15.0872C12.4692 16.4501 13.5638 15.7717 13.9112 13.292C14.3042 10.6776 12.7942 7.02948 10.9912 6.15605C9.61773 5.47228 9.4492 5.51404 8.96817 6.38587Z" fill="white"/>
<path d="M3.28444 21.0353C3.59697 23.845 7.86923 28.9062 11.729 30.9974C12.9184 31.6774 14.9889 32.1268 16.8284 32.1645C19.7181 32.2011 20.1317 32.074 23.9212 29.9135C27.5575 27.8403 28.1237 27.3546 29.9044 24.9269C32.1741 21.7857 34.4364 15.1177 33.8194 13.2965C33.2795 11.7029 32.4151 12.5216 30.6224 16.5316C28.6389 20.922 27.554 22.5727 25.3277 24.4939C23.2007 26.3042 19.2719 27.7835 16.8267 27.7108C13.9216 27.6286 8.54161 24.2855 5.65992 20.7675C4.19222 18.9966 3.08104 19.0869 3.28444 21.0353Z" fill="white"/>
</svg>
