<svg xmlns="http://www.w3.org/2000/svg" xmlns:xlink="http://www.w3.org/1999/xlink" viewBox="0 0 56 56" width="56" height="56" preserveAspectRatio="xMidYMid meet" style="width: 100%; height: 100%; transform: translate3d(0px, 0px, 0px); content-visibility: visible;"><defs><clipPath id="__lottie_element_192"><rect width="56" height="56" x="0" y="0"></rect></clipPath><clipPath id="__lottie_element_197"><path d="M0,0 L56,0 L56,56 L0,56z"></path></clipPath><clipPath id="__lottie_element_202"><path d="M0,0 L21,0 L21,20 L0,20z"></path></clipPath><clipPath id="__lottie_element_207"><path d="M0,0 L43,0 L43,51 L0,51z"></path></clipPath></defs><g clip-path="url(#__lottie_element_192)"><g clip-path="url(#__lottie_element_197)" transform="matrix(1,0,0,1,0,0)" opacity="1" style="display: block;"><g clip-path="url(#__lottie_element_202)" transform="matrix(1,0,0,1,16,16)" opacity="1" style="display: block;"><g transform="matrix(1.333299994468689,0,0,1.333299994468689,0,0)" opacity="1" style="display: block;"><g opacity="1" transform="matrix(1,0,0,1,0,0)"><g opacity="1" transform="matrix(1,0,0,1,0,0)"><path fill="rgb(242,35,22)" fill-opacity="1" d=" M12.34000015258789,6.190000057220459 C12.15999984741211,6.329999923706055 12,6.539999961853027 11.75,6.539999961853027 C12.350000381469727,6.539999961853027 13.039999961853027,6.889999866485596 13.529999732971191,7.210000038146973 C14.199999809265137,7.639999866485596 14.720000267028809,8.430000305175781 14.720000267028809,9.239999771118164 C14.720000267028809,9.6899995803833 14.699999809265137,10.130000114440918 14.5,10.539999961853027 C14.270000457763672,10.989999771118164 13.739999771118164,11.390000343322754 13.210000038146973,11.390000343322754 C12.8100004196167,11.390000343322754 12.449999809265137,11.390000343322754 12.0600004196167,11.319999694824219 C11.960000038146973,11.300000190734863 11.819999694824219,11.229999542236328 11.729999542236328,11.180000305175781 C11.630000114440918,11.119999885559082 11.510000228881836,11.100000381469727 11.399999618530273,11.029999732971191 C11.279999732971191,10.960000038146973 11.149999618530273,10.930000305175781 11.039999961853027,10.850000381469727 C11.039999961853027,10.850000381469727 11.029999732971191,10.84000015258789 11.029999732971191,10.84000015258789 C10.960000038146973,10.789999961853027 10.880000114440918,10.729999542236328 10.789999961853027,10.729999542236328 C10.949999809265137,10.760000228881836 11.020000457763672,11.34000015258789 11.020000457763672,11.510000228881836 C11.020000457763672,11.819999694824219 11.09000015258789,12.199999809265137 11.020000457763672,12.5 C10.90999984741211,13 10.680000305175781,13.350000381469727 10.229999542236328,13.640000343322754 C9.930000305175781,13.84000015258789 9.6899995803833,13.84000015258789 9.34000015258789,13.84000015258789 C9,13.84000015258789 8.649999618530273,13.8100004196167 8.319999694824219,13.739999771118164 C8.0600004196167,13.680000305175781 7.699999809265137,13.4399995803833 7.570000171661377,13.199999809265137 C7.389999866485596,12.869999885559082 7.199999809265137,12.569999694824219 7.050000190734863,12.220000267028809 C6.920000076293945,11.899999618530273 6.820000171661377,11.430000305175781 6.820000171661377,11.09000015258789 C6.71999979019165,11.289999961853027 6.639999866485596,11.520000457763672 6.409999847412109,11.630000114440918 C6.260000228881836,11.699999809265137 6.159999847412109,11.8100004196167 5.989999771118164,11.859999656677246 C5.829999923706055,11.90999984741211 5.679999828338623,11.979999542236328 5.519999980926514,12.020000457763672 C4.900000095367432,12.15999984741211 4.159999847412109,11.989999771118164 3.630000114440918,11.6899995803833 C3.3499999046325684,11.529999732971191 3.0199999809265137,11.25 2.880000114440918,10.960000038146973 C2.809999942779541,10.8100004196167 2.740000009536743,10.699999809265137 2.690000057220459,10.539999961853027 C2.640000104904175,10.380000114440918 2.6600000858306885,10.199999809265137 2.6600000858306885,10.029999732971191 C2.6600000858306885,9.65999984741211 2.809999942779541,9.229999542236328 3.009999990463257,8.920000076293945 C3.1500000953674316,8.6899995803833 3.380000114440918,8.119999885559082 3.7100000381469727,8.119999885559082 C3.7100000381469727,8.119999885559082 3.690000057220459,8.119999885559082 3.690000057220459,8.119999885559082 C3.130000114440918,8.119999885559082 2.5,8.119999885559082 2.0199999809265137,7.820000171661377 C1.5700000524520874,7.539999961853027 1.0700000524520874,7.159999847412109 1.0700000524520874,6.570000171661377 C1.0700000524520874,6.230000019073486 1.1299999952316284,5.960000038146973 1.25,5.639999866485596 C1.3600000143051147,5.360000133514404 1.590000033378601,5.170000076293945 1.7999999523162842,4.980000019073486 C1.9500000476837158,4.840000152587891 2.2300000190734863,4.75 2.4200000762939453,4.679999828338623 C2.630000114440918,4.610000133514404 2.8299999237060547,4.590000152587891 3.049999952316284,4.590000152587891 C3.630000114440918,4.590000152587891 4.190000057220459,4.679999828338623 4.769999980926514,4.679999828338623 C4.699999809265137,4.53000020980835 4.710000038146973,4.409999847412109 4.710000038146973,4.269999980926514 C4.710000038146973,4.170000076293945 4.679999828338623,4.050000190734863 4.679999828338623,3.940000057220459 C4.679999828338623,3.7200000286102295 4.659999847412109,3.4800000190734863 4.710000038146973,3.2799999713897705 C4.820000171661377,2.759999990463257 4.929999828338623,2.240000009536743 5.480000019073486,2.009999990463257 C6.159999847412109,1.7200000286102295 6.75,2.0399999618530273 7.369999885559082,2.2699999809265137 C7.590000152587891,2.3499999046325684 7.880000114440918,2.4800000190734863 8.050000190734863,2.640000104904175 C8.180000305175781,2.75 8.350000381469727,2.799999952316284 8.479999542236328,2.930000066757202 C8.479999542236328,2.930000066757202 8.479999542236328,2.940000057220459 8.479999542236328,2.940000057220459 C8.5600004196167,3.0199999809265137 8.699999809265137,3.1500000953674316 8.710000038146973,3.259999990463257 C8.710000038146973,3.140000104904175 8.869999885559082,2.9000000953674316 8.9399995803833,2.7899999618530273 C8.9399995803833,2.7899999618530273 8.9399995803833,2.7899999618530273 8.9399995803833,2.7899999618530273 C9.039999961853027,2.640000104904175 9.140000343322754,2.5 9.25,2.359999895095825 C9.5,2.0399999618530273 9.789999961853027,1.75 10.109999656677246,1.5 C10.430000305175781,1.2599999904632568 10.930000305175781,1.090000033378601 11.329999923706055,1.2699999809265137 C11.779999732971191,1.4700000286102295 12.34000015258789,1.600000023841858 12.640000343322754,2.0199999809265137 C12.960000038146973,2.450000047683716 13.229999542236328,2.869999885559082 13.229999542236328,3.4200000762939453 C13.229999542236328,3.5899999141693115 13.289999961853027,3.880000114440918 13.220000267028809,4.039999961853027 C13.140000343322754,4.21999979019165 13.210000038146973,4.46999979019165 13.130000114440918,4.650000095367432 C12.989999771118164,4.96999979019165 12.9399995803833,5.420000076293945 12.699999809265137,5.690000057220459 C12.5600004196167,5.849999904632568 12.520000457763672,6.050000190734863 12.34000015258789,6.190000057220459 C12.34000015258789,6.190000057220459 12.34000015258789,6.190000057220459 12.34000015258789,6.190000057220459z"></path></g><g opacity="1" transform="matrix(0.75,0,0,0.75,0,0)"><path stroke-linecap="round" stroke-linejoin="round" fill-opacity="0" stroke="rgb(242,35,22)" stroke-opacity="1" stroke-width="1.56" d=" M16.450000762939453,8.260000228881836 C16.209999084472656,8.449999809265137 15.989999771118164,8.710000038146973 15.65999984741211,8.710000038146973 C16.459999084472656,8.710000038146973 17.3799991607666,9.1899995803833 18.040000915527344,9.609999656677246 C18.93000030517578,10.180000305175781 19.6299991607666,11.239999771118164 19.6299991607666,12.319999694824219 C19.6299991607666,12.90999984741211 19.610000610351562,13.510000228881836 19.34000015258789,14.050000190734863 C19.040000915527344,14.649999618530273 18.31999969482422,15.1899995803833 17.6200008392334,15.1899995803833 C17.09000015258789,15.1899995803833 16.600000381469727,15.1899995803833 16.079999923706055,15.100000381469727 C15.9399995803833,15.079999923706055 15.75,14.979999542236328 15.640000343322754,14.90999984741211 C15.5,14.829999923706055 15.34000015258789,14.789999961853027 15.199999809265137,14.699999809265137 C15.039999961853027,14.600000381469727 14.859999656677246,14.569999694824219 14.710000038146973,14.460000038146973 C14.710000038146973,14.460000038146973 14.710000038146973,14.460000038146973 14.710000038146973,14.460000038146973 C14.619999885559082,14.390000343322754 14.510000228881836,14.3100004196167 14.390000343322754,14.3100004196167 C14.600000381469727,14.350000381469727 14.6899995803833,15.119999885559082 14.6899995803833,15.34000015258789 C14.6899995803833,15.75 14.779999732971191,16.270000457763672 14.6899995803833,16.670000076293945 C14.539999961853027,17.329999923706055 14.239999771118164,17.799999237060547 13.649999618530273,18.190000534057617 C13.25,18.450000762939453 12.920000076293945,18.450000762939453 12.449999809265137,18.450000762939453 C11.989999771118164,18.450000762939453 11.539999961853027,18.420000076293945 11.100000381469727,18.31999969482422 C10.75,18.239999771118164 10.270000457763672,17.90999984741211 10.09000015258789,17.59000015258789 C9.850000381469727,17.149999618530273 9.600000381469727,16.760000228881836 9.399999618530273,16.290000915527344 C9.220000267028809,15.869999885559082 9.100000381469727,15.25 9.100000381469727,14.789999961853027 C8.960000038146973,15.0600004196167 8.859999656677246,15.359999656677246 8.550000190734863,15.5 C8.350000381469727,15.59000015258789 8.199999809265137,15.75 7.980000019073486,15.819999694824219 C7.769999980926514,15.880000114440918 7.570000171661377,15.979999542236328 7.349999904632568,16.030000686645508 C6.53000020980835,16.209999084472656 5.539999961853027,15.989999771118164 4.840000152587891,15.59000015258789 C4.46999979019165,15.380000114440918 4.019999980926514,15.010000228881836 3.8399999141693115,14.619999885559082 C3.75,14.420000076293945 3.6500000953674316,14.260000228881836 3.5899999141693115,14.050000190734863 C3.5299999713897705,13.829999923706055 3.549999952316284,13.609999656677246 3.549999952316284,13.380000114440918 C3.549999952316284,12.890000343322754 3.75,12.319999694824219 4.010000228881836,11.899999618530273 C4.199999809265137,11.600000381469727 4.510000228881836,10.829999923706055 4.949999809265137,10.829999923706055 C4.949999809265137,10.829999923706055 4.920000076293945,10.829999923706055 4.920000076293945,10.829999923706055 C4.179999828338623,10.829999923706055 3.3499999046325684,10.829999923706055 2.700000047683716,10.430000305175781 C2.0999999046325684,10.0600004196167 1.4299999475479126,9.550000190734863 1.4299999475479126,8.760000228881836 C1.4299999475479126,8.300000190734863 1.4900000095367432,7.940000057220459 1.659999966621399,7.519999980926514 C1.7999999523162842,7.150000095367432 2.119999885559082,6.889999866485596 2.4000000953674316,6.639999866485596 C2.5999999046325684,6.460000038146973 2.9600000381469727,6.320000171661377 3.2200000286102295,6.230000019073486 C3.5,6.139999866485596 3.7699999809265137,6.110000133514404 4.070000171661377,6.110000133514404 C4.849999904632568,6.110000133514404 5.590000152587891,6.239999771118164 6.360000133514404,6.239999771118164 C6.269999980926514,6.039999961853027 6.28000020980835,5.869999885559082 6.28000020980835,5.690000057220459 C6.28000020980835,5.550000190734863 6.230000019073486,5.409999847412109 6.230000019073486,5.260000228881836 C6.230000019073486,4.960000038146973 6.21999979019165,4.639999866485596 6.28000020980835,4.369999885559082 C6.429999828338623,3.680000066757202 6.570000171661377,2.990000009536743 7.300000190734863,2.680000066757202 C8.199999809265137,2.299999952316284 9,2.7300000190734863 9.829999923706055,3.0299999713897705 C10.130000114440918,3.130000114440918 10.5,3.309999942779541 10.729999542236328,3.5199999809265137 C10.899999618530273,3.6700000762939453 11.119999885559082,3.740000009536743 11.300000190734863,3.9100000858306885 C11.300000190734863,3.9100000858306885 11.3100004196167,3.9200000762939453 11.3100004196167,3.9200000762939453 C11.40999984741211,4.03000020980835 11.59000015258789,4.199999809265137 11.609999656677246,4.349999904632568 C11.609999656677246,4.190000057220459 11.829999923706055,3.859999895095825 11.920000076293945,3.7200000286102295 C11.920000076293945,3.7200000286102295 11.920000076293945,3.7200000286102295 11.920000076293945,3.7200000286102295 C12.050000190734863,3.5199999809265137 12.180000305175781,3.3299999237060547 12.329999923706055,3.140000104904175 C12.65999984741211,2.7100000381469727 13.050000190734863,2.3299999237060547 13.479999542236328,1.9900000095367432 C13.899999618530273,1.6699999570846558 14.579999923706055,1.4500000476837158 15.109999656677246,1.690000057220459 C15.699999809265137,1.9600000381469727 16.440000534057617,2.140000104904175 16.850000381469727,2.700000047683716 C17.280000686645508,3.2699999809265137 17.649999618530273,3.8299999237060547 17.649999618530273,4.559999942779541 C17.649999618530273,4.78000020980835 17.719999313354492,5.179999828338623 17.6299991607666,5.389999866485596 C17.520000457763672,5.619999885559082 17.600000381469727,5.960000038146973 17.5,6.199999809265137 C17.31999969482422,6.630000114440918 17.260000228881836,7.239999771118164 16.940000534057617,7.590000152587891 C16.75,7.800000190734863 16.690000534057617,8.069999694824219 16.450000762939453,8.260000228881836 C16.450000762939453,8.260000228881836 16.450000762939453,8.260000228881836 16.450000762939453,8.260000228881836z"></path></g><g opacity="1" transform="matrix(1,0,0,1,0,0)"><path fill="rgb(244,244,242)" fill-opacity="1" d=" M9.130000114440918,6.75 C9.220000267028809,6.769999980926514 9.390000343322754,6.869999885559082 9.529999732971191,6.980000019073486 C9.6899995803833,7.110000133514404 9.800000190734863,7.179999828338623 9.869999885559082,7.369999885559082 C9.920000076293945,7.519999980926514 9.899999618530273,7.679999828338623 9.899999618530273,7.789999961853027 C9.899999618530273,7.949999809265137 9.869999885559082,8.079999923706055 9.869999885559082,8.239999771118164 C9.869999885559082,8.619999885559082 9.630000114440918,8.890000343322754 9.359999656677246,9.130000114440918 C9.220000267028809,9.25 8.949999809265137,9.34000015258789 8.770000457763672,9.369999885559082 C8.65999984741211,9.390000343322754 8.529999732971191,9.369999885559082 8.420000076293945,9.369999885559082 C8.3100004196167,9.369999885559082 8.119999885559082,9.369999885559082 8.020000457763672,9.329999923706055 C7.809999942779541,9.25 7.630000114440918,9.210000038146973 7.460000038146973,9.039999961853027 C7.230000019073486,8.8100004196167 7.099999904632568,8.510000228881836 7.019999980926514,8.1899995803833 C6.929999828338623,7.800000190734863 6.909999847412109,7.409999847412109 7.090000152587891,7.039999961853027 C7.269999980926514,6.690000057220459 7.739999771118164,6.5 8.109999656677246,6.5 C8.319999694824219,6.5 8.529999732971191,6.539999961853027 8.729999542236328,6.610000133514404 C8.859999656677246,6.659999847412109 8.989999771118164,6.710000038146973 9.130000114440918,6.75 C9.130000114440918,6.75 9.130000114440918,6.75 9.130000114440918,6.75z"></path></g><g opacity="1" transform="matrix(0.75,0,0,0.75,0,0)"><path stroke-linecap="round" stroke-linejoin="miter" fill-opacity="0" stroke-miterlimit="4" stroke="rgb(244,244,242)" stroke-opacity="1" stroke-width="1.56" d=" M12.170000076293945,9.010000228881836 C12.279999732971191,9.039999961853027 12.520000457763672,9.149999618530273 12.710000038146973,9.300000190734863 C12.920000076293945,9.470000267028809 13.069999694824219,9.569999694824219 13.15999984741211,9.829999923706055 C13.229999542236328,10.029999732971191 13.199999809265137,10.229999542236328 13.199999809265137,10.380000114440918 C13.199999809265137,10.59000015258789 13.15999984741211,10.779999732971191 13.15999984741211,10.989999771118164 C13.15999984741211,11.5 12.829999923706055,11.850000381469727 12.479999542236328,12.170000076293945 C12.300000190734863,12.329999923706055 11.9399995803833,12.449999809265137 11.699999809265137,12.489999771118164 C11.550000190734863,12.510000228881836 11.369999885559082,12.5 11.220000267028809,12.489999771118164 C11.069999694824219,12.479999542236328 10.819999694824219,12.489999771118164 10.6899995803833,12.4399995803833 C10.40999984741211,12.329999923706055 10.15999984741211,12.270000457763672 9.9399995803833,12.050000190734863 C9.630000114440918,11.739999771118164 9.470000267028809,11.350000381469727 9.359999656677246,10.920000076293945 C9.239999771118164,10.399999618530273 9.210000038146973,9.880000114440918 9.449999809265137,9.390000343322754 C9.680000305175781,8.920000076293945 10.329999923706055,8.670000076293945 10.819999694824219,8.670000076293945 C11.100000381469727,8.670000076293945 11.380000114440918,8.710000038146973 11.640000343322754,8.8100004196167 C11.819999694824219,8.880000114440918 11.989999771118164,8.960000038146973 12.170000076293945,9.010000228881836 C12.170000076293945,9.010000228881836 12.170000076293945,9.010000228881836 12.170000076293945,9.010000228881836z"></path></g></g></g><g transform="matrix(1,0,0,1,0,0)" opacity="1" style="display: block;"><path fill="rgb(0,0,0)" fill-opacity="0" d=" M21,0 C21,0 0,0 0,0 C0,0 0,20 0,20 C0,20 21,20 21,20 C21,20 21,0 21,0z"></path></g></g><g clip-path="url(#__lottie_element_207)" transform="matrix(1,0,0,1,7,3)" opacity="1" style="display: block;"><g transform="matrix(1.333299994468689,0,0,1.333299994468689,0,0)" opacity="1" style="display: block;"><g opacity="1" transform="matrix(1,0,0,1,0,0)"><g opacity="1" transform="matrix(0.75,0,0,0.75,0,0)"><path stroke-linecap="round" stroke-linejoin="miter" fill-opacity="0" stroke-miterlimit="4" stroke="rgb(242,35,22)" stroke-opacity="1" stroke-width="3" d=" M27.719999313354492,1.9199999570846558 C27.510000228881836,2.0299999713897705 27.5,3.200000047683716 27.5,3.4600000381469727 C27.5,4.300000190734863 27.239999771118164,5.070000171661377 26.959999084472656,5.849999904632568 C26.8799991607666,6.079999923706055 26.84000015258789,6.590000152587891 26.6299991607666,6.710000038146973 C26.329999923706055,6.889999866485596 26.149999618530273,7 25.790000915527344,7.059999942779541 C25.34000015258789,7.130000114440918 24.850000381469727,6.989999771118164 24.399999618530273,6.989999771118164 C24.399999618530273,6.989999771118164 22.90999984741211,6.989999771118164 22.90999984741211,6.989999771118164 C21.25,6.989999771118164 19.600000381469727,6.789999961853027 17.940000534057617,6.769999980926514 C17.149999618530273,6.760000228881836 15.630000114440918,6.519999980926514 15.420000076293945,5.559999942779541 C15.359999656677246,5.300000190734863 15.470000267028809,5.050000190734863 15.479999542236328,4.809999942779541 C15.5,4.5 15.539999961853027,3.940000057220459 15.670000076293945,3.6500000953674316 C15.770000457763672,3.4100000858306885 15.729999542236328,3.0899999141693115 15.789999961853027,2.8399999141693115 C15.869999885559082,2.490000009536743 15.989999771118164,2.119999885559082 16.040000915527344,1.7599999904632568 M33.650001525878906,2.2699999809265137 C34.2599983215332,2.2899999618530273 34.7599983215332,2.799999952316284 34.779998779296875,3.4100000858306885 M33.650001525878906,2.2699999809265137 C34.2599983215332,2.2899999618530273 34.7599983215332,2.7899999618530273 34.779998779296875,3.4100000858306885 M33.650001525878906,2.2699999809265137 C31.18000030517578,2.200000047683716 28.959999084472656,1.9199999570846558 26.399999618530273,1.8799999952316284 C23.920000076293945,1.840000033378601 21.43000030517578,1.6799999475479126 18.940000534057617,1.6799999475479126 C16.469999313354492,1.6799999475479126 13.270000457763672,1.5800000429153442 10.550000190734863,1.5299999713897705 C9.640000343322754,1.5099999904632568 8.850000381469727,2.109999895095825 8.630000114440918,3 C7.980000019073486,5.670000076293945 6.75,10.84000015258789 6.559999942779541,11.609999656677246 C6.210000038146973,13.020000457763672 6.199999809265137,14.489999771118164 6.010000228881836,15.9399995803833 C5.849999904632568,17.1200008392334 5.760000228881836,18.299999237060547 5.559999942779541,19.469999313354492 C5.309999942779541,20.920000076293945 5.039999961853027,22.399999618530273 4.829999923706055,23.860000610351562 C4.489999771118164,26.209999084472656 4.269999980926514,28.530000686645508 4.050000190734863,30.889999389648438 C3.880000114440918,32.790000915527344 3.7100000381469727,34.65999984741211 3.319999933242798,36.52000045776367 C2.9800000190734863,38.189998626708984 2.3299999237060547,42.72999954223633 1.8700000047683716,45.79999923706055 C1.6799999475479126,47.02000045776367 2.640000104904175,48.13999938964844 3.880000114440918,48.13999938964844 C3.880000114440918,48.13999938964844 6.019999980926514,48.13999938964844 6.019999980926514,48.13999938964844 C6.619999885559082,48.13999938964844 7.170000076293945,47.79999923706055 7.449999809265137,47.27000045776367 C7.989999771118164,46.27000045776367 8.84000015258789,44.720001220703125 9.399999618530273,43.689998626708984 C9.720000267028809,43.099998474121094 10.3100004196167,42.689998626708984 10.979999542236328,42.709999084472656 C11.100000381469727,42.720001220703125 11.220000267028809,42.720001220703125 11.34000015258789,42.720001220703125 C12.84000015258789,42.720001220703125 14.329999923706055,42.790000915527344 15.819999694824219,42.81999969482422 C17.40999984741211,42.849998474121094 19.010000228881836,42.77000045776367 20.579999923706055,42.91999816894531 C21.770000457763672,43.029998779296875 23.040000915527344,43.02000045776367 24.229999542236328,43.02000045776367 C24.90999984741211,43.02000045776367 25.540000915527344,43.09000015258789 26.200000762939453,43.119998931884766 C27.739999771118164,43.16999816894531 27.850000381469727,45.88999938964844 28.399999618530273,46.88999938964844 C28.520000457763672,47.099998474121094 28.799999237060547,47.66999816894531 29.049999237060547,48.18000030517578 C29.31999969482422,48.709999084472656 29.860000610351562,49.04999923706055 30.450000762939453,49.04999923706055 C30.450000762939453,49.04999923706055 33.72999954223633,49.04999923706055 33.72999954223633,49.04999923706055 C34.83000183105469,49.04999923706055 35.7400016784668,48.15999984741211 35.7400016784668,47.04999923706055 C35.75,46.02000045776367 35.75,44.93000030517578 35.7400016784668,44.22999954223633 M35.7400016784668,44.22999954223633 C35.7400016784668,44.22999954223633 35.7400016784668,44.22999954223633 35.7400016784668,44.22999954223633 M35.36000061035156,12.770000457763672 C35.36000061035156,9.359999656677246 34.689998626708984,6.380000114440918 34.65999984741211,2.9800000190734863 C35.119998931884766,4.739999771118164 37.02000045776367,10.260000228881836 37.290000915527344,12.050000190734863 C37.369998931884766,12.630000114440918 37.310001373291016,13.430000305175781 37.52000045776367,13.970000267028809 C37.75,14.569999694824219 37.529998779296875,15.34000015258789 37.790000915527344,15.930000305175781 C38.09000015258789,16.600000381469727 38.06999969482422,17.649999618530273 38.209999084472656,18.389999389648438 C38.470001220703125,19.709999084472656 38.630001068115234,21.059999465942383 38.810001373291016,22.399999618530273 C39.06999969482422,24.3700008392334 38.86000061035156,26.389999389648438 39.09000015258789,28.350000381469727 C39.220001220703125,29.43000030517578 39.27000045776367,30.510000228881836 39.369998931884766,31.59000015258789 C39.58000183105469,33.70000076293945 39.9900016784668,35.83000183105469 40.41999816894531,37.90999984741211 C40.66999816894531,39.099998474121094 40.869998931884766,40.5099983215332 40.869998931884766,41.720001220703125 C40.869998931884766,42.040000915527344 40.90999984741211,42.36000061035156 40.959999084472656,42.689998626708984 C41.099998474121094,43.529998779296875 40.459999084472656,44.22999954223633 39.599998474121094,44.22999954223633 C39.599998474121094,44.22999954223633 35.7400016784668,44.22999954223633 35.7400016784668,44.22999954223633 M35.36000061035156,12.770000457763672 C35.36000061035156,9.630000114440918 34.880001068115234,6.539999961853027 34.779998779296875,3.4100000858306885 M35.36000061035156,12.770000457763672 C35.36000061035156,16.489999771118164 35.560001373291016,20.229999542236328 35.560001373291016,23.959999084472656 C35.560001373291016,30.850000381469727 35.689998626708984,37.470001220703125 35.7400016784668,44.22999954223633"></path></g></g></g><g transform="matrix(1,0,0,1,0,0)" opacity="1" style="display: block;"><path fill="rgb(0,0,0)" fill-opacity="0" d=" M43,0 C43,0 0,0 0,0 C0,0 0,51 0,51 C0,51 43,51 43,51 C43,51 43,0 43,0z"></path></g></g></g></g></svg>