<svg width="40" height="39" viewBox="0 0 40 39" fill="none" xmlns="http://www.w3.org/2000/svg">
<path fill-rule="evenodd" clip-rule="evenodd" d="M20.0121 39C17.7314 38.9999 15.5398 38.1142 13.8993 36.5298C12.2589 34.9453 11.2977 32.7857 11.2185 30.5064C9.03593 31.15 6.68843 30.9175 4.67447 29.8584C2.66052 28.7992 1.13872 26.9967 0.432205 24.8337C-0.274306 22.6706 -0.109882 20.3174 0.890564 18.2736C1.89101 16.2298 3.64868 14.6565 5.79037 13.8877C4.53244 12.0123 4.0544 9.72078 4.4576 7.4989C4.8608 5.27702 6.11354 3.29955 7.9502 1.98577C9.79045 0.656754 12.0719 0.0877037 14.3208 0.396805C16.5696 0.705906 18.613 1.86941 20.0264 3.64564C20.9066 2.53827 22.04 1.65864 23.3312 1.08083C24.6223 0.50301 26.0335 0.243935 27.4457 0.325428C28.8579 0.406918 30.2299 0.826584 31.446 1.54908C32.6621 2.27158 33.6869 3.27574 34.4338 4.477C35.313 5.89738 35.7639 7.54115 35.7325 9.2113C35.701 10.8814 35.1887 12.5071 34.2567 13.8934C36.383 14.6644 38.1263 16.232 39.1179 18.2649C40.1095 20.2977 40.2719 22.6365 39.5706 24.7868L38.2107 24.344L39.5677 24.7897C38.8587 26.9463 37.3412 28.7439 35.3341 29.8047C33.3271 30.8655 30.987 31.1068 28.8057 30.4778C28.7337 32.7622 27.7758 34.9289 26.1345 36.5195C24.4933 38.1101 22.2976 38.9996 20.0121 39Z" fill="#F4511E"/>
<path d="M20.012 12.6021C23.4918 12.6021 26.3115 15.4018 26.3115 18.8587C26.3115 22.3156 23.4918 25.1154 20.012 25.1154C16.5323 25.1154 13.7125 22.3156 13.7125 18.8587C13.7125 15.4018 16.5323 12.6021 20.012 12.6021Z" fill="white"/>
</svg>
